<?xml version="1.0" encoding="utf-8"?>
<!-- Generator: Adobe Illustrator 23.0.3, SVG Export Plug-In . SVG Version: 6.00 Build 0)  -->
<svg version="1.1" id="Calque_1" xmlns="http://www.w3.org/2000/svg" xmlns:xlink="http://www.w3.org/1999/xlink" x="0px" y="0px"
	 viewBox="0 0 247.1 247.1" style="enable-background:new 0 0 247.1 247.1;" xml:space="preserve">
<style type="text/css">
	.st0{fill:#E40304;}
	.st1{fill:#578698;}
	.st2{fill:#FFFFFF;}
</style>
<g>
	<path class="st0" d="M247.1,123.5c0,68.2-55.3,123.5-123.5,123.5S0,191.8,0,123.5S55.3,0,123.5,0c1,0,2,0,3,0
		c9,21.6,37,32.4,73.4,26.5C228.7,49.1,247.1,84.2,247.1,123.5z"/>
	<g>
		<path class="st1" d="M126.6,0c-1,0-2,0-3,0c-8.7,0-17.2,0.9-25.5,2.6l-65.2,139l71.7-18.9L50.1,247.1l91-129.2l-31.5-18.9l60-75
			C169.6,23.9,137.5,22.2,126.6,0z"/>
		<path class="st2" d="M200,26.5c-20.3-16-45.7-25.8-73.4-26.5L48.1,137.6l75.5-19.9L50.1,247.1L199.4,81.2l-75.8,24L200,26.5z"/>
	</g>
</g>
</svg>
