<?xml version="1.0" encoding="UTF-8"?>
<!DOCTYPE svg PUBLIC "-//W3C//DTD SVG 1.1//EN" "http://www.w3.org/Graphics/SVG/1.1/DTD/svg11.dtd">
<svg xmlns="http://www.w3.org/2000/svg" version="1.1" width="150px" height="150px" style="shape-rendering:geometricPrecision; text-rendering:geometricPrecision; image-rendering:optimizeQuality; fill-rule:evenodd; clip-rule:evenodd" xmlns:xlink="http://www.w3.org/1999/xlink">
<g><path style="opacity:0.866" fill="#fefffe" d="M 71.5,0.5 C 93.8358,0.33337 116.169,0.500037 138.5,1C 143,2.83333 146.167,6 148,10.5C 148.667,53.1667 148.667,95.8333 148,138.5C 146.167,143 143,146.167 138.5,148C 119.926,148.825 101.426,148.659 83,147.5C 81.8603,144.472 82.6936,142.305 85.5,141C 102.5,140.667 119.5,140.333 136.5,140C 137.667,138.833 138.833,137.667 140,136.5C 140.5,117.17 140.667,97.8362 140.5,78.5C 136.774,78.1774 133.107,78.5108 129.5,79.5C 134.13,96.917 127.63,107.25 110,110.5C 93.7943,108.093 86.7943,98.7601 89,82.5C 89.3095,81.2341 89.8095,80.0674 90.5,79C 88.1093,78.7132 85.7759,78.2132 83.5,77.5C 82.0623,75.0023 82.3956,72.8356 84.5,71C 88.9002,70.0223 93.0669,70.5223 97,72.5C 97.9581,74.1992 98.4581,76.0326 98.5,78C 96.1921,83.7716 96.0254,89.6049 98,95.5C 106.715,104.846 114.715,104.18 122,93.5C 123.969,89.3508 123.635,85.3508 121,81.5C 119.357,76.5724 120.857,73.0724 125.5,71C 130.489,70.5007 135.489,70.3341 140.5,70.5C 140.667,51.1638 140.5,31.8305 140,12.5C 138.833,11.3333 137.667,10.1667 136.5,9C 117.17,8.50005 97.8362,8.33338 78.5,8.5C 78.5,12.1667 78.5,15.8333 78.5,19.5C 96.6004,14.5406 107.267,21.2073 110.5,39.5C 106.889,57.2806 96.389,63.6139 79,58.5C 78.7132,60.8907 78.2132,63.2241 77.5,65.5C 71.9069,67.5034 69.5735,65.5034 70.5,59.5C 69.7341,53.672 72.2341,50.672 78,50.5C 83.7716,52.8079 89.6049,52.9746 95.5,51C 104.846,42.2852 104.18,34.2852 93.5,27C 91.8632,26.3988 90.1966,25.8988 88.5,25.5C 74.7407,32.0827 68.7407,27.7494 70.5,12.5C 70.5319,8.41854 70.8652,4.41854 71.5,0.5 Z"/></g>
<g><path style="opacity:0.915" fill="#625aff" d="M 37.5,38.5 C 56.8948,40.7979 63.8948,51.2979 58.5,70C 64.5,70.3333 70.5,70.6667 76.5,71C 77,71.5 77.5,72 78,72.5C 78.9345,80.6047 78.6011,88.6047 77,96.5C 75.2605,97.8943 73.2605,98.5609 71,98.5C 58.1324,92.8536 49.9657,96.6869 46.5,110C 50.6617,122.614 58.8284,126.114 71,120.5C 73.6667,120.167 75.6667,121.167 77,123.5C 78.7983,131.444 78.965,139.444 77.5,147.5C 55.1741,148.666 32.8408,148.833 10.5,148C 6,146.167 2.83333,143 1,138.5C 0.333333,116.167 0.333333,93.8333 1,71.5C 7.07576,70.5236 13.2424,70.1903 19.5,70.5C 14.6452,53.53 20.6452,42.8634 37.5,38.5 Z M 38.5,46.5 C 51.8892,49.7628 55.8892,57.9295 50.5,71C 50.3006,74.2738 51.6339,76.6071 54.5,78C 59.8229,78.4994 65.1563,78.666 70.5,78.5C 70.6655,82.5138 70.4988,86.5138 70,90.5C 52.5007,85.1681 42.0007,91.5014 38.5,109.5C 41.8406,127.839 52.5073,134.505 70.5,129.5C 70.5,133.167 70.5,136.833 70.5,140.5C 51.1638,140.667 31.8305,140.5 12.5,140C 11.3333,138.833 10.1667,137.667 9,136.5C 8.50005,117.17 8.33338,97.8362 8.5,78.5C 13.5111,78.6659 18.5111,78.4993 23.5,78C 26.784,76.6036 28.4506,74.1036 28.5,70.5C 23.1091,58.6414 26.4424,50.6414 38.5,46.5 Z"/></g>
</svg>
